Coordinates
version=1
nRows=16
nColumns=40
inDegrees=yes

Units are S.I. units (second, meters, Newtons, ...)
Angles are in degrees.

endheader
time	pelvis_tilt	pelvis_list	pelvis_rotation	pelvis_tx	pelvis_ty	pelvis_tz	hip_flexion_r	hip_adduction_r	hip_rotation_r	knee_angle_r	knee_angle_r_beta	ankle_angle_r	subtalar_angle_r	mtp_angle_r	hip_flexion_l	hip_adduction_l	hip_rotation_l	knee_angle_l	knee_angle_l_beta	ankle_angle_l	subtalar_angle_l	mtp_angle_l	lumbar_extension	lumbar_bending	lumbar_rotation	arm_flex_r	arm_add_r	arm_rot_r	elbow_flex_r	pro_sup_r	wrist_flex_r	wrist_dev_r	arm_flex_l	arm_add_l	arm_rot_l	elbow_flex_l	pro_sup_l	wrist_flex_l	wrist_dev_l
      0.88000000	     -0.10473054	     -4.75743599	      4.47885102	      0.04241949	      0.93854288	      1.01542705	     21.86537174	      2.11541730	    -17.54331318	    -24.66212770	     -0.43043533	     -2.45005148	    -10.68252694	     -0.86375958	    -10.44608431	     13.08450972	     15.16019096	    -34.11908837	     -0.59549043	     -9.88356113	     -5.88898710	    -12.18976684	     -1.80240026	      3.10979948	     -9.15940131	     -4.04021238	     -9.30482239	    -28.37557459	     12.56346757	     89.95437384	      0.00000000	      0.00000000	      6.62944427	     12.76383149	      4.63612027	     28.35486663	     89.95437384	      0.00000000	      0.00000000
      0.89000000	     -0.38764749	     -5.22466368	      4.42064212	      0.05223006	      0.93926710	      1.01898211	     21.39421279	      2.99855977	    -17.56347571	    -24.32019096	     -0.42446741	     -1.99881073	    -10.76803074	     -0.49110855	     -8.40926160	     13.98430010	     14.30542303	    -37.30509588	     -0.65109675	    -11.58344370	     -3.46634533	    -11.50274284	     -1.44934885	      3.42811566	     -8.79101477	     -3.72267620	     -9.21564702	    -28.39001240	     12.73586394	     89.95437384	      0.00000000	      0.00000000	      5.85260011	     12.53920964	      4.49359677	     26.85600792	     89.95437384	      0.00000000	      0.00000000
      0.90000000	     -0.61300446	     -5.44610321	      4.36250779	      0.06189798	      0.94009254	      1.02178215	     20.90701220	      3.53260803	    -17.46169335	    -24.17209296	     -0.42188261	     -1.28503003	    -10.62386670	     -0.36630595	     -6.42022455	     14.47913809	     13.42382402	    -40.32832851	     -0.70386211	    -12.50633598	     -1.12997183	    -11.00253046	     -1.16599957	      3.54852230	     -8.39219153	     -3.39077245	     -9.22538916	    -28.26857167	     12.90538906	     89.95437384	      0.00000000	      0.00000000	      5.11641927	     12.30878957	      4.03882270	     25.16129768	     89.95437384	      0.00000000	      0.00000000
      0.91000000	     -1.28139349	     -5.52035845	      4.41929493	      0.07049160	      0.94013794	      1.02420626	     21.10737898	      3.74384886	    -17.51154033	    -24.29026664	     -0.42394513	     -0.83354441	    -10.71086111	     -0.00036624	     -3.60112238	     14.69667835	     12.39378917	    -43.71281237	     -0.76293250	    -11.64725227	      2.17674478	    -10.64928984	     -0.51928527	      3.48870330	     -8.12205638	     -2.98650418	     -9.14464038	    -28.53499412	     13.15463883	     89.95437384	      0.00000000	      0.00000000	      4.39795940	     12.07727244	      3.76898066	     23.63191621	     89.95437384	      0.00000000	      0.00000000
      0.92000000	     -1.34405046	     -5.66992946	      4.43989667	      0.07973689	      0.94120313	      1.02639914	     20.44131795	      4.16152324	    -17.35548620	    -24.09238585	     -0.42049146	     -0.09332513	    -10.48174866	      0.00943928	     -1.69226114	     15.04391432	     11.96063060	    -46.57288594	     -0.81285020	    -10.03024846	      4.94069508	    -10.52900916	     -0.49168865	      3.57975139	     -7.65909736	     -2.62850080	     -9.15335232	    -28.49594443	     13.45391738	     89.95437384	      0.00000000	      0.00000000	      3.87300865	     11.79138331	      3.31121840	     21.86846889	     89.95437384	      0.00000000	      0.00000000
      0.93000000	     -1.71404158	     -5.71299653	      4.64317528	      0.08845373	      0.94175408	      1.02823955	     20.18869489	      4.29882227	    -17.48892090	    -23.99103253	     -0.41872251	      0.30440536	    -10.32370680	      0.10995969	      0.76556885	     15.17226779	     11.38505335	    -49.41836085	     -0.86251311	     -8.26051726	      8.15435609	    -10.13844472	     -0.16253078	      3.51795178	     -7.43798091	     -2.32673426	     -9.11730664	    -28.50982565	     13.98486346	     89.95437384	      0.00000000	      0.00000000	      3.18070624	     11.59254318	      2.84066209	     20.41899664	     89.95437384	      0.00000000	      0.00000000
      0.94000000	     -2.12446335	     -5.53805452	      4.86867786	      0.09678738	      0.94236279	      1.02985323	     20.04789685	      4.18134762	    -17.56289815	    -24.04449044	     -0.41965553	      0.73878700	    -10.31659163	      0.26033754	      3.24800470	     14.91498432	     10.72076231	    -51.92291788	     -0.90622587	     -6.36069297	     11.21180823	     -9.16973548	      0.14809336	      3.20210440	     -7.22390829	     -1.93014377	     -9.09978921	    -28.36797681	     14.38943497	     89.95437384	      0.00000000	      0.00000000	      2.54503033	     11.43941703	      2.32794992	     19.01186662	     89.95437384	      0.00000000	      0.00000000
      0.95000000	     -1.90307088	     -5.45379478	      5.06035223	      0.10595265	      0.94407335	      1.03143884	     18.92308179	      4.38376845	    -17.32481643	    -23.58557729	     -0.41164598	      1.37091573	    -10.32125362	      0.22198405	      4.71550617	     14.83947738	     10.40163803	    -53.76350163	     -0.93835012	     -4.64355089	     13.23100997	     -8.89669270	     -0.17572429	      3.05306088	     -6.86714484	     -1.45929680	     -9.10499419	    -28.29505159	     14.70576010	     89.95437384	      0.00000000	      0.00000000	      1.99292249	     11.25561501	      1.88868134	     17.50394978	     89.95437384	      0.00000000	      0.00000000
      0.96000000	     -2.25636652	     -5.12138833	      5.36102880	      0.11415378	      0.94486863	      1.03258503	     18.62482383	      4.08797062	    -17.47292738	    -23.50030310	     -0.41015766	      2.02962879	    -10.22808233	      1.56131934	      7.14971963	     14.19991061	      9.63670083	    -55.96282065	     -0.97673548	      0.22929148	     14.44547701	      6.99166942	      0.06287753	      2.56271539	     -6.67249806	     -1.05921979	     -9.09091672	    -28.07939960	     15.14649837	     89.95437384	      0.00000000	      0.00000000	      1.30625772	     11.17697801	      1.24182612	     16.37499559	     89.95437384	      0.00000000	      0.00000000
      0.97000000	     -2.02670030	     -4.92540236	      5.55389566	      0.12299899	      0.94674467	      1.03397519	     17.42853670	      4.15889121	    -17.35518707	    -22.93160691	     -0.40023204	      2.54230675	    -10.17999613	      1.48365417	      8.51901894	     13.91057440	      9.38784915	    -57.18808937	     -0.99812045	      1.59407297	     15.64405015	      6.79076167	     -0.31605959	      2.28482119	     -6.30659980	     -0.51805834	     -9.12530089	    -27.89871016	     15.42974384	     89.95437384	      0.00000000	      0.00000000	      0.71183113	     11.06690405	      0.79295858	     15.18308010	     89.95437384	      0.00000000	      0.00000000
      0.98000000	     -2.00369459	     -4.68289682	      5.77504851	      0.13143837	      0.94833927	      1.03530600	     16.42225492	      4.11019122	    -17.58970596	    -22.23526321	     -0.38807855	      2.88201258	     -9.97616579	      1.43277345	     10.14984739	     13.45150017	      8.99838350	    -58.18849404	     -1.01558081	      2.82380047	     16.63466367	      6.73466937	     -0.49733416	      1.92987257	     -5.96127437	     -0.07581661	     -9.16484974	    -27.52667825	     15.92171231	     89.95437384	      0.00000000	      0.00000000	      0.07296162	     11.01543780	      0.23707541	     14.25094957	     89.95437384	      0.00000000	      0.00000000
      0.99000000	     -1.99259728	     -4.40121484	      5.89864780	      0.13992215	      0.94992840	      1.03667316	     15.45013079	      4.01784548	    -17.87988838	    -21.60334338	     -0.37704947	      3.28835794	     -9.73424279	      1.37978197	     11.66255870	     12.97052702	      8.82006192	    -58.84067515	     -1.02696352	      3.86156732	     17.26137853	      6.70780498	     -0.64938214	      1.51997978	     -5.57787474	      0.47204011	     -9.23086577	    -27.17083621	     16.26102614	     89.95437384	      0.00000000	      0.00000000	     -0.64406198	     10.99763109	     -0.27833034	     13.35797908	     89.95437384	      0.00000000	      0.00000000
      1.00000000	     -2.03876172	     -4.13581593	      6.12362422	      0.14825322	      0.95134484	      1.03766633	     14.56222750	      3.75419961	    -18.81120876	    -21.05215737	     -0.36742946	      3.71415004	     -8.62995364	      1.19181875	     13.24649284	     12.41354033	      8.53205105	    -59.26664754	     -1.03439814	      4.91831926	     17.51015590	      7.55825307	     -0.69500135	      1.13470860	     -5.21884619	      0.74496399	     -9.41260189	    -26.05853100	     16.98502811	     89.95437384	      0.00000000	      0.00000000	     -1.42909781	     11.10150545	     -1.82400189	     12.75236641	     89.95437384	      0.00000000	      0.00000000
      1.01000000	     -1.88439089	     -3.47446158	      6.00093688	      0.15669396	      0.95326785	      1.03880376	     13.39629782	      3.18676395	    -19.16601366	    -20.46470892	     -0.35717655	      4.25161395	     -7.41567320	      0.60644040	     14.21975388	     11.39054089	      8.65624059	    -59.10060112	     -1.03150008	      5.94960278	     17.70788867	      9.62247401	     -1.04262962	      0.35123097	     -4.53810215	      1.25750266	     -9.55366308	    -25.34518949	     17.38607148	     89.95437384	      0.00000000	      0.00000000	     -2.23135012	     11.21956530	     -2.95549908	     12.40534597	     89.95437384	      0.00000000	      0.00000000
      1.02000000	     -2.03074062	     -3.04995751	      5.86154875	      0.16499845	      0.95457583	      1.04018643	     12.60882257	      2.94055020	    -19.27094749	    -19.79716908	     -0.34552578	      4.38744953	     -7.10293533	      0.50059677	     15.58921969	     10.73416897	      8.90816383	    -58.80587398	     -1.02635612	      6.39150352	     17.74577420	      9.71328100	     -1.02133908	     -0.22580185	     -3.92715619	      1.86990748	     -9.67231816	    -25.13406096	     17.70267110	     89.95437384	      0.00000000	      0.00000000	     -3.00397275	     11.23846330	     -3.15615590	     11.86322458	     89.95437384	      0.00000000	      0.00000000
      1.03000000	     -2.05356573	     -2.53361893	      5.59457938	      0.17332619	      0.95601789	      1.04152574	     11.74282555	      2.59303474	    -19.26088977	    -19.24709567	     -0.33592519	      4.60378223	     -6.64740177	      0.29291380	     16.64344934	     10.03008832	      9.41958387	    -58.07843350	     -1.01365989	      6.69521705	     17.71419319	      9.92065658	     -1.13810497	     -0.86971653	     -3.18871652	      2.44474605	     -9.83055199	    -24.66785148	     18.07698715	     89.95437384	      0.00000000	      0.00000000	     -3.83808001	     11.30841690	     -3.51509502	     11.57330904	     89.95437384	      0.00000000	      0.00000000
